<svg width="40" height="40" viewBox="0 0 40 40" fill="none" xmlns="http://www.w3.org/2000/svg">
<path d="M40 19.9999C40 25.5228 37.7614 30.5228 34.1421 34.1421C30.5228 37.7614 25.5228 39.9999 20 39.9999C14.4772 39.9999 9.47715 37.7614 5.85786 34.1421C2.23858 30.5228 0 25.5228 0 19.9999C0 14.4771 2.23858 9.47709 5.85786 5.8578C9.47715 2.23852 14.4772 -6.10352e-05 20 -6.10352e-05C25.5228 -6.10352e-05 30.5228 2.23852 34.1421 5.8578C37.7614 9.47709 40 14.4771 40 19.9999Z" fill="#4D5AE5"/>
<g clip-path="url(#clip0_246_693)">
<path d="M22.6645 14.6566H24.1252V12.1126C23.8732 12.0779 23.0065 11.9999 21.9972 11.9999C19.8912 11.9999 18.4485 13.3246 18.4485 15.7593V17.9999H16.1245V20.8439H18.4485V27.9999H21.2978V20.8446H23.5278L23.8818 18.0006H21.2972V16.0413C21.2978 15.2193 21.5192 14.6566 22.6645 14.6566Z" fill="#F4F4FD"/>
</g>
<defs>
<clipPath id="clip0_246_693">
<rect width="16" height="16" fill="white" transform="translate(12 11.9999)"/>
</clipPath>
</defs>
</svg>
