<svg width="40" height="40" viewBox="0 0 40 40" fill="none" xmlns="http://www.w3.org/2000/svg">
<path d="M40 19.9999C40 25.5228 37.7614 30.5228 34.1421 34.1421C30.5228 37.7614 25.5228 39.9999 20 39.9999C14.4772 39.9999 9.47715 37.7614 5.85786 34.1421C2.23858 30.5228 0 25.5228 0 19.9999C0 14.4771 2.23858 9.47709 5.85786 5.8578C9.47715 2.23852 14.4772 -6.10352e-05 20 -6.10352e-05C25.5228 -6.10352e-05 30.5228 2.23852 34.1421 5.8578C37.7614 9.47709 40 14.4771 40 19.9999Z" fill="#4D5AE5"/>
<g clip-path="url(#clip0_246_681)">
<path d="M27.9845 16.704C27.9471 15.8538 27.8096 15.2694 27.6126 14.7629C27.4095 14.2253 27.0969 13.7441 26.6874 13.344C26.2873 12.9376 25.8028 12.6219 25.2715 12.4219C24.7621 12.225 24.1807 12.0875 23.3306 12.05C22.4741 12.0093 22.2022 11.9999 20.0299 11.9999C17.8576 11.9999 17.5857 12.0093 16.7324 12.0468C15.8822 12.0843 15.2978 12.2219 14.7914 12.4187C14.2537 12.6219 13.7724 12.9344 13.3723 13.344C12.966 13.7441 12.6504 14.2285 12.4503 14.7599C12.2533 15.2694 12.1159 15.8507 12.0784 16.7008C12.0377 17.5573 12.0283 17.8292 12.0283 20.0015C12.0283 22.1738 12.0377 22.4457 12.0752 23.299C12.1127 24.1492 12.2503 24.7336 12.4472 25.2401C12.6504 25.7777 12.966 26.259 13.3723 26.6591C13.7724 27.0654 14.2569 27.3811 14.7883 27.5811C15.2978 27.778 15.879 27.9155 16.7293 27.953C17.5825 27.9906 17.8545 27.9999 20.0268 27.9999C22.1991 27.9999 22.471 27.9906 23.3243 27.953C24.1745 27.9155 24.7589 27.778 25.2653 27.5811C26.3406 27.1654 27.1907 26.3152 27.6064 25.2401C27.8032 24.7306 27.9408 24.1492 27.9783 23.299C28.0158 22.4457 28.0252 22.1738 28.0252 20.0015C28.0252 17.8292 28.022 17.5573 27.9845 16.704ZM26.5437 23.2365C26.5093 24.0179 26.378 24.4399 26.2686 24.7212C25.9998 25.4182 25.4466 25.9714 24.7495 26.2403C24.4682 26.3497 24.0432 26.4809 23.2649 26.5152C22.421 26.5528 22.1679 26.5621 20.0331 26.5621C17.8982 26.5621 17.642 26.5528 16.8011 26.5152C16.0197 26.4809 15.5977 26.3497 15.3164 26.2403C14.9696 26.1121 14.6538 25.9089 14.3976 25.6432C14.1319 25.3838 13.9287 25.0712 13.8005 24.7243C13.6911 24.443 13.5599 24.0179 13.5256 23.2397C13.488 22.3958 13.4787 22.1425 13.4787 20.0077C13.4787 17.8729 13.488 17.6166 13.5256 16.7759C13.5599 15.9945 13.6911 15.5725 13.8005 15.2912C13.9287 14.9442 14.1319 14.6286 14.4007 14.3722C14.6601 14.1066 14.9726 13.9034 15.3196 13.7753C15.6009 13.6659 16.026 13.5347 16.8043 13.5002C17.6482 13.4627 17.9014 13.4533 20.0361 13.4533C22.1741 13.4533 22.4272 13.4627 23.2681 13.5002C24.0495 13.5347 24.4714 13.6659 24.7527 13.7753C25.0996 13.9034 25.4153 14.1066 25.6716 14.3722C25.9373 14.6317 26.1404 14.9442 26.2686 15.2912C26.378 15.5725 26.5093 15.9975 26.5437 16.7759C26.5812 17.6198 26.5906 17.8729 26.5906 20.0077C26.5906 22.1425 26.5812 22.3926 26.5437 23.2365Z" fill="#F4F4FD"/>
<path d="M20.0296 15.8913C17.7605 15.8913 15.9194 17.7322 15.9194 20.0015C15.9194 22.2707 17.7605 24.1117 20.0296 24.1117C22.2989 24.1117 24.1398 22.2707 24.1398 20.0015C24.1398 17.7322 22.2989 15.8913 20.0296 15.8913ZM20.0296 22.6676C18.5575 22.6676 17.3634 21.4737 17.3634 20.0015C17.3634 18.5293 18.5575 17.3353 20.0296 17.3353C21.5018 17.3353 22.6958 18.5293 22.6958 20.0015C22.6958 21.4737 21.5018 22.6676 20.0296 22.6676Z" fill="#F4F4FD"/>
<path d="M25.262 15.7288C25.262 16.2587 24.8323 16.6884 24.3023 16.6884C23.7724 16.6884 23.3428 16.2587 23.3428 15.7288C23.3428 15.1988 23.7724 14.7693 24.3023 14.7693C24.8323 14.7693 25.262 15.1988 25.262 15.7288Z" fill="#F4F4FD"/>
</g>
<defs>
<clipPath id="clip0_246_681">
<rect width="16" height="16" fill="white" transform="translate(12 11.9999)"/>
</clipPath>
</defs>
</svg>
